<svg width="196" height="195" viewBox="0 0 196 195" fill="none" xmlns="http://www.w3.org/2000/svg">
<path d="M89.4772 22.01L98.098 26.4377C102.065 28.4782 106.673 28.8806 110.936 27.5585L120.202 24.6887C128.579 22.0933 137.559 26.2809 140.956 34.3571L144.709 43.2915C146.431 47.3998 149.71 50.6682 153.819 52.4006L162.762 56.1484C170.844 59.5418 175.033 68.5215 172.433 76.8912L169.559 86.1529C168.234 90.412 168.64 95.0169 170.685 98.9848L175.118 107.602C179.132 115.396 176.565 124.962 169.188 129.71L161.036 134.961C157.283 137.379 154.634 141.165 153.64 145.516L151.493 154.97C149.554 163.522 141.435 169.197 132.735 168.101L123.112 166.883C118.687 166.324 114.219 167.521 110.666 170.218L102.941 176.084C95.9544 181.383 86.0858 180.528 80.1307 174.091L73.5444 166.977C70.5164 163.705 66.3211 161.752 61.8616 161.535L52.1766 161.063C43.4139 160.64 36.4077 153.639 35.9874 144.882L35.5179 135.203C35.3043 130.744 33.3449 126.556 30.0764 123.527L22.9569 116.943C16.5185 110.986 15.658 101.124 20.961 94.1438L26.8317 86.4268C29.5349 82.8779 30.732 78.4103 30.1667 73.983L28.9497 64.3691C27.8513 55.668 33.5362 47.56 42.0886 45.6192L51.5486 43.4712C55.9015 42.4848 59.691 39.8322 62.1062 36.0816L67.3581 27.9368C72.1063 20.5656 81.6795 18.0004 89.4772 22.01Z" fill="#FF7233"/>
<path d="M69.4265 97.3201C69.6001 97.7265 69.7516 98.1712 69.881 98.6541C69.9834 99.0365 70.0534 99.4383 70.0908 99.8597C70.1356 100.268 70.1236 100.687 70.055 101.115C70.0204 101.307 69.9629 101.495 69.8826 101.679C69.8023 101.862 69.722 102.045 69.6417 102.228C69.5614 102.412 69.4861 102.594 69.4159 102.774C69.353 102.942 69.3166 103.108 69.3068 103.273C69.2775 103.485 69.2711 103.703 69.2874 103.925C69.3112 104.134 69.3399 104.342 69.3737 104.549C69.4075 104.755 69.4413 104.962 69.4751 105.169C69.5089 105.375 69.53 105.575 69.5382 105.766C69.542 106.143 69.5334 106.453 69.5122 106.695C69.4984 106.926 69.4765 107.126 69.4465 107.295C69.4165 107.465 69.3737 107.628 69.3182 107.783C69.26 107.928 69.1948 108.107 69.1226 108.32C69.0551 108.511 69.0086 108.68 68.9833 108.827C68.958 108.974 68.9404 109.13 68.9305 109.294C68.928 109.446 68.9322 109.622 68.9432 109.824C68.9616 110.014 68.9756 110.247 68.9853 110.525C68.9814 110.591 68.9711 110.653 68.9544 110.711C68.9349 110.759 68.9119 110.814 68.8851 110.875C68.8657 110.924 68.849 110.982 68.835 111.05C68.831 111.116 68.8412 111.194 68.8655 111.285C68.8816 111.345 68.9042 111.409 68.9331 111.477C68.9621 111.545 68.9846 111.609 69.0008 111.669C69.0304 111.78 69.0239 111.916 68.9811 112.079C68.9458 112.229 68.8916 112.389 68.8187 112.559C68.7558 112.727 68.6892 112.901 68.619 113.082C68.5461 113.252 68.4956 113.406 68.4676 113.543C68.4088 113.807 68.3726 114.054 68.3588 114.284C68.355 114.511 68.3137 114.76 68.2348 115.029C68.1319 115.369 67.9958 115.767 67.8266 116.222C67.6547 116.667 67.4523 117.099 67.2192 117.517C66.999 117.943 66.7539 118.316 66.4838 118.636C66.2138 118.957 65.9279 119.157 65.626 119.238C65.5153 119.268 65.3983 119.294 65.2748 119.316C65.1514 119.338 65.0293 119.366 64.9086 119.398C64.647 119.468 64.431 119.547 64.2607 119.636C64.0903 119.725 63.9401 119.808 63.8101 119.886C63.6927 119.972 63.5778 120.046 63.4651 120.108C63.3652 120.178 63.2499 120.231 63.1191 120.266C62.9983 120.298 62.8886 120.311 62.79 120.305C62.694 120.309 62.5991 120.297 62.5051 120.268C62.4138 120.25 62.3148 120.222 62.2081 120.186C62.104 120.16 61.9849 120.138 61.8507 120.12C61.5037 120.073 61.1863 120.056 60.8985 120.068C60.6106 120.08 60.3406 120.099 60.0883 120.123C59.8361 120.148 59.5925 120.165 59.3577 120.174C59.1228 120.183 58.8759 120.146 58.6168 120.065C58.3604 119.993 58.0841 119.868 57.788 119.688C57.4891 119.499 57.1537 119.233 56.7815 118.89C56.5377 118.664 56.3033 118.474 56.0783 118.318C55.8634 118.16 55.6649 118.003 55.4829 117.847C55.3009 117.691 55.1427 117.523 55.0082 117.343C54.8711 117.154 54.7648 116.918 54.6893 116.636C54.568 116.183 54.4984 115.803 54.4806 115.495C54.4601 115.177 54.5581 114.919 54.7746 114.721C54.9589 114.564 55.1143 114.339 55.2408 114.046C55.3673 113.753 55.4719 113.439 55.5547 113.104C55.6449 112.757 55.7236 112.407 55.791 112.054C55.8657 111.689 55.9435 111.356 56.0243 111.054C56.1125 110.739 56.2092 110.476 56.3142 110.264C56.4294 110.05 56.5661 109.916 56.7244 109.863C56.8452 109.831 56.9931 109.84 57.1683 109.89C57.3536 109.937 57.5392 110.006 57.7252 110.096C57.9084 110.177 58.0793 110.271 58.2378 110.38C58.3963 110.488 58.5128 110.581 58.5874 110.658C58.6337 110.71 58.6781 110.795 58.7205 110.914C58.7603 111.022 58.799 111.146 58.8367 111.287C58.8845 111.425 58.9364 111.578 58.9923 111.747C59.0455 111.905 59.1138 112.059 59.1972 112.209C59.2752 112.339 59.3756 112.453 59.4985 112.549C59.6187 112.636 59.7128 112.745 59.7807 112.878C59.8742 113.025 59.9337 113.187 59.9595 113.364C59.9952 113.538 60.0622 113.687 60.1603 113.812C60.4507 114.251 60.8366 114.585 61.3179 114.812C61.8067 115.026 62.3479 115.053 62.9415 114.894C63.3138 114.794 63.7208 114.583 64.1626 114.26C64.2625 114.19 64.3828 114.055 64.5235 113.856C64.6642 113.656 64.7958 113.443 64.9183 113.216C65.0381 112.979 65.1314 112.744 65.1982 112.51C65.2724 112.264 65.2893 112.065 65.2489 111.914C65.1976 111.723 65.0643 111.608 64.8489 111.568C64.6408 111.516 64.4157 111.501 64.1735 111.523C63.9286 111.535 63.6978 111.559 63.4811 111.595C63.2644 111.632 63.1205 111.638 63.0493 111.614C62.9526 111.575 62.8593 111.508 62.7693 111.414C62.6765 111.309 62.5811 111.195 62.483 111.07C62.395 110.943 62.3019 110.817 62.2038 110.692C62.1056 110.567 62.0015 110.46 61.8914 110.371C61.7839 110.292 61.6466 110.243 61.4795 110.223C61.3198 110.19 61.1506 110.122 60.972 110.019C60.7934 109.916 60.6346 109.786 60.4955 109.629C60.3638 109.46 60.2099 109.328 60.034 109.235C59.8326 109.127 59.594 109.062 59.3182 109.039C59.0497 109.003 58.8071 108.922 58.5902 108.797C58.5136 108.753 58.4414 108.664 58.3735 108.532C58.3129 108.386 58.2316 108.284 58.1295 108.225C58.0248 108.156 57.9043 108.129 57.7681 108.144C57.6393 108.146 57.5517 108.121 57.5053 108.069C57.4697 108.057 57.4207 107.994 57.3581 107.882C57.2956 107.769 57.2193 107.665 57.1293 107.571C57.052 107.484 56.9637 107.416 56.8643 107.367C56.775 107.315 56.7183 107.244 56.694 107.154C56.6805 107.103 56.6734 107.057 56.6727 107.014C56.6693 106.961 56.6608 106.909 56.6473 106.859C56.6204 106.758 56.5696 106.669 56.495 106.592C56.4178 106.505 56.3331 106.431 56.2411 106.369C56.1565 106.295 56.0796 106.229 56.0104 106.172C55.9385 106.105 55.8918 106.031 55.8703 105.951C55.819 105.76 55.8017 105.554 55.8182 105.334C55.832 105.104 55.8012 104.848 55.7257 104.566C55.6771 104.385 55.6122 104.203 55.5308 104.02C55.4467 103.827 55.3589 103.64 55.2674 103.46C55.1732 103.269 55.0854 103.082 55.004 102.899C54.9226 102.716 54.8577 102.534 54.8091 102.353C54.7687 102.202 54.7574 102.059 54.7754 101.925C54.8034 101.788 54.8328 101.656 54.8635 101.53C54.9016 101.39 54.9269 101.243 54.9395 101.089C54.9621 100.932 54.9464 100.752 54.8925 100.551C54.8413 100.36 54.775 100.173 54.6936 99.9898C54.6122 99.8067 54.5512 99.6397 54.5108 99.4888C54.4811 99.3781 54.4652 99.2584 54.4631 99.1295C54.4609 99.0007 54.4916 98.8739 54.5552 98.749C54.6161 98.614 54.7126 98.4911 54.8446 98.3803C54.9867 98.2667 55.1785 98.1775 55.42 98.1128C55.6917 98.04 55.9279 98.0361 56.1286 98.1009C56.3293 98.1658 56.5042 98.2753 56.6534 98.4294C56.8099 98.5708 56.948 98.7441 57.0677 98.9493C57.1873 99.1545 57.2906 99.3587 57.3774 99.5619C57.4742 99.7624 57.562 99.9491 57.6407 100.122C57.7295 100.292 57.8226 100.419 57.92 100.5C58.0201 100.592 58.1463 100.661 58.2987 100.706C58.4584 100.739 58.6282 100.769 58.8081 100.796C58.9953 100.811 59.1788 100.832 59.3587 100.859C59.5486 100.883 59.7225 100.929 59.8802 100.994C60.0662 101.084 60.2496 101.246 60.4304 101.478C60.6111 101.71 60.811 101.953 61.0301 102.207C61.2082 102.428 61.4114 102.644 61.6398 102.852C61.8682 103.06 62.0496 103.254 62.184 103.434C62.3211 103.624 62.422 103.839 62.4867 104.081C62.5588 104.31 62.6748 104.521 62.8347 104.716C62.9664 104.885 63.178 105.071 63.4695 105.273C63.771 105.473 64.0749 105.661 64.381 105.838C64.6946 106.002 64.9799 106.141 65.2371 106.256C65.5016 106.357 65.664 106.4 65.7244 106.384C65.8544 106.306 65.9183 106.122 65.9159 105.831C65.9136 105.541 65.8867 105.219 65.8353 104.866C65.7912 104.5 65.7371 104.137 65.6729 103.777C65.6161 103.404 65.5919 103.093 65.6003 102.842C65.6034 102.572 65.6276 102.36 65.6731 102.208C65.7185 102.056 65.768 101.918 65.8215 101.796C65.8851 101.671 65.9474 101.541 66.0083 101.407C66.0792 101.269 66.1404 101.075 66.1918 100.824C66.2124 100.699 66.1998 100.552 66.154 100.381C66.1155 100.197 66.1036 100.011 66.1181 99.8242C66.1307 99.6698 66.1624 99.5265 66.2132 99.3943C66.2714 99.2493 66.2967 99.1023 66.2892 98.9533C66.2961 98.6172 66.2793 98.2928 66.2387 97.9801C66.1954 97.6574 66.1766 97.3659 66.1823 97.1055C66.188 96.8452 66.2361 96.622 66.3264 96.436C66.4268 96.2474 66.6179 96.1153 66.8996 96.0398C67.121 95.9805 67.3491 95.9463 67.5839 95.9373C67.8288 95.9256 68.0275 95.9425 68.1798 95.988C68.1825 95.998 68.243 96.0627 68.3612 96.182C68.4895 96.2986 68.6283 96.434 68.7774 96.5881C68.9366 96.7396 69.0794 96.89 69.2057 97.0395C69.3394 97.1762 69.413 97.2698 69.4265 97.3201ZM89.0569 105.503C89.1013 105.588 89.1433 105.684 89.183 105.792C89.2201 105.89 89.2534 105.994 89.2831 106.105C89.3532 106.367 89.4008 106.645 89.426 106.94C89.4485 107.226 89.4559 107.515 89.4482 107.808C89.4505 108.098 89.4401 108.382 89.417 108.657C89.4012 108.921 89.3864 109.167 89.3726 109.397C89.3422 109.848 89.3202 110.188 89.3063 110.418C89.2925 110.648 89.2639 110.823 89.2204 110.942C89.1742 111.052 89.0972 111.126 88.9892 111.166C88.8913 111.203 88.7367 111.25 88.5254 111.307C88.3744 111.347 88.1688 111.364 87.9084 111.359C87.6454 111.343 87.3679 111.293 87.0759 111.21C86.7812 111.116 86.4922 110.983 86.2088 110.811C85.9355 110.636 85.7168 110.404 85.5528 110.113C85.5366 110.053 85.5297 109.947 85.5322 109.795C85.5347 109.644 85.5131 109.482 85.4673 109.311C85.4275 109.203 85.3643 109.048 85.2775 108.845C85.2007 108.639 85.1085 108.415 85.0009 108.175C84.8905 107.924 84.7752 107.674 84.6548 107.426C84.5417 107.165 84.4254 106.932 84.3057 106.727C84.186 106.522 84.0721 106.358 83.9639 106.236C83.8658 106.112 83.7815 106.059 83.7111 106.078C83.4495 106.148 83.2691 106.239 83.1699 106.352C83.0781 106.452 83.0041 106.558 82.9479 106.67C82.8889 106.772 82.8199 106.877 82.7409 106.985C82.6692 107.079 82.5277 107.155 82.3164 107.212C82.1152 107.265 81.8884 107.305 81.6362 107.329C81.3812 107.344 81.0961 107.366 80.7807 107.397C80.4728 107.414 80.1373 107.45 79.7744 107.504C79.4087 107.549 79.0146 107.627 78.592 107.74C78.3707 107.8 78.1721 107.864 77.9964 107.932C77.818 107.991 77.7053 108.053 77.6584 108.12C77.572 108.24 77.5387 108.438 77.5585 108.713C77.5783 108.988 77.6162 109.291 77.6723 109.621C77.7257 109.941 77.7841 110.259 77.8476 110.577C77.9083 110.884 77.9328 111.136 77.921 111.333C77.9089 111.369 77.8849 111.44 77.8487 111.547C77.8099 111.644 77.7665 111.763 77.7183 111.905C77.6675 112.038 77.6207 112.185 77.5779 112.347C77.5325 112.5 77.5008 112.643 77.4828 112.777C77.4349 113.081 77.4128 113.421 77.4166 113.798C77.4278 114.162 77.4135 114.511 77.3736 114.845C77.3465 115.186 77.2757 115.486 77.1613 115.743C77.0469 116 76.8438 116.168 76.552 116.246C76.3608 116.297 76.1675 116.3 75.9722 116.255C75.787 116.208 75.6128 116.142 75.4496 116.056C75.2992 115.977 75.169 115.894 75.0588 115.805C74.9513 115.726 74.8872 115.667 74.8664 115.63C74.689 115.451 74.5224 115.312 74.3666 115.214C74.2182 115.102 74.0789 115.005 73.9486 114.921C73.8183 114.838 73.7068 114.743 73.6141 114.639C73.5187 114.524 73.4454 114.371 73.3941 114.18C73.3753 114.11 73.3547 114.013 73.3324 113.889C73.3 113.769 73.2764 113.64 73.2615 113.504C73.2365 113.37 73.2179 113.241 73.2056 113.115C73.1934 112.988 73.1866 112.882 73.1851 112.796C73.1918 112.741 73.2135 112.681 73.2503 112.617C73.2945 112.541 73.3337 112.465 73.3678 112.392C73.412 112.315 73.4475 112.246 73.4743 112.185C73.5084 112.111 73.5174 112.044 73.5012 111.984C73.4796 111.903 73.4343 111.835 73.3651 111.778C73.306 111.718 73.2656 111.648 73.2441 111.567C73.2387 111.547 73.2396 111.531 73.247 111.518C73.2544 111.505 73.2554 111.489 73.25 111.469C73.2697 111.14 73.3123 110.816 73.3776 110.496C73.4531 110.174 73.5171 109.85 73.5697 109.523C73.6297 109.183 73.6682 108.844 73.6853 108.505C73.7097 108.154 73.6807 107.784 73.5984 107.396C73.5498 107.215 73.4973 107.019 73.4407 106.808C73.3941 106.594 73.3476 106.38 73.301 106.166C73.2618 105.939 73.2303 105.721 73.2066 105.511C73.1902 105.289 73.1957 105.088 73.223 104.909C73.225 104.876 73.2568 104.813 73.3184 104.721C73.3901 104.627 73.4614 104.51 73.5324 104.373C73.6006 104.225 73.6484 104.061 73.6757 103.881C73.7104 103.689 73.6994 103.487 73.6428 103.275C73.6131 103.165 73.572 103.052 73.5196 102.936C73.4671 102.821 73.4247 102.703 73.3923 102.582C73.3546 102.441 73.3437 102.32 73.3597 102.219C73.383 102.105 73.4141 102 73.4529 101.903C73.4991 101.793 73.5402 101.685 73.5763 101.579C73.6225 101.469 73.6495 101.349 73.6574 101.217C73.6813 100.984 73.6673 100.751 73.6153 100.517C73.5607 100.273 73.5023 100.035 73.4403 99.8033C73.3756 99.5618 73.3173 99.324 73.2654 99.0899C73.2235 98.8531 73.2145 98.6183 73.2383 98.3854C73.2342 98.2895 73.2593 98.2019 73.3135 98.1226C73.3651 98.0333 73.418 97.949 73.4722 97.8698C73.5339 97.7778 73.5841 97.6835 73.6229 97.5868C73.6617 97.4901 73.6662 97.3865 73.6366 97.2758C73.615 97.1953 73.5834 97.1175 73.5417 97.0424C73.5074 96.9545 73.4767 96.8603 73.4498 96.7597C73.3878 96.5282 73.3747 96.2783 73.4106 96.0099C73.4566 95.7387 73.514 95.4699 73.5828 95.2035C73.6489 94.9269 73.7026 94.6645 73.7439 94.4162C73.7926 94.1551 73.7913 93.929 73.74 93.7378L73.6592 93.436C73.6079 93.2448 73.6308 93.0284 73.7278 92.7867C73.8349 92.5423 74.0027 92.3032 74.2312 92.0695C74.4571 91.8256 74.7326 91.6062 75.0578 91.4112C75.3904 91.2035 75.7528 91.0471 76.1452 90.9419C76.3666 90.8826 76.5709 90.8602 76.7581 90.8748C76.9527 90.8765 77.15 90.8884 77.35 90.9103C77.55 90.9322 77.765 90.95 77.9952 90.9639C78.2227 90.9676 78.4786 90.9368 78.7631 90.8713C78.924 90.8282 79.086 90.7686 79.249 90.6926C79.4193 90.6038 79.5896 90.5151 79.76 90.4263C79.9276 90.3275 80.0979 90.2387 80.2709 90.16C80.4413 90.0712 80.612 90.0039 80.783 89.958C80.8736 89.9338 80.9974 89.933 81.1544 89.9556C81.3188 89.9655 81.4886 89.9955 81.6638 90.0456C81.849 90.093 82.0283 90.1582 82.2015 90.2412C82.3848 90.3215 82.5442 90.4136 82.6799 90.5174C82.923 90.7003 83.122 90.9597 83.2767 91.2957C83.4415 91.629 83.5929 91.9928 83.7309 92.3872C83.879 92.7789 84.0321 93.1692 84.1903 93.5582C84.3484 93.9472 84.5411 94.2838 84.7682 94.5681C84.8536 94.6854 84.9463 94.7899 85.0464 94.8818C85.1438 94.9635 85.2388 95.0567 85.3315 95.1612C85.4343 95.2631 85.5274 95.3891 85.6108 95.5393C85.7015 95.6768 85.7779 95.8612 85.8399 96.0926C85.9154 96.3744 85.9772 96.6652 86.0252 96.965C86.0705 97.2549 86.1282 97.5306 86.1983 97.7922C86.2549 98.0035 86.3272 98.1728 86.4153 98.3002C86.5134 98.4249 86.6075 98.5345 86.6975 98.629C86.7848 98.7134 86.8671 98.7992 86.9444 98.8863C87.0317 98.9708 87.0943 99.0834 87.132 99.2243C87.1832 99.4155 87.211 99.6399 87.2153 99.8975C87.2197 100.155 87.2528 100.4 87.3149 100.631C87.3742 100.853 87.4633 101.044 87.5823 101.207C87.7012 101.369 87.7749 101.543 87.8033 101.73C87.8445 101.924 87.8605 102.124 87.8513 102.331C87.8422 102.539 87.8267 102.743 87.8048 102.942C87.7829 103.142 87.766 103.341 87.7541 103.538C87.7423 103.736 87.7593 103.92 87.8051 104.091C87.8429 104.232 87.9145 104.358 88.02 104.47C88.1254 104.582 88.241 104.691 88.3666 104.798C88.4922 104.904 88.6192 105.016 88.7475 105.133C88.8731 105.239 88.9762 105.362 89.0569 105.503ZM82.1646 103.143C82.2007 103.037 82.1999 102.913 82.1621 102.772C82.1244 102.631 82.0561 102.477 81.9573 102.309C81.8584 102.142 81.7573 101.986 81.6538 101.841C81.5576 101.683 81.4669 101.546 81.3815 101.428C81.2962 101.311 81.2467 101.227 81.2333 101.177C81.2063 101.076 81.1944 100.972 81.1977 100.863C81.2009 100.754 81.1877 100.645 81.158 100.534C81.0879 100.272 80.9611 100.02 80.7777 99.7784C80.5942 99.5364 80.4024 99.3236 80.2022 99.14C80.0094 98.9436 79.831 98.7811 79.6671 98.6525C79.5006 98.5138 79.3941 98.4183 79.3477 98.366C79.2342 98.2239 79.1407 98.0764 79.0674 97.9235C79.0015 97.7578 78.9281 97.6049 78.8474 97.4648C78.7768 97.322 78.6965 97.2033 78.6065 97.1088C78.5164 97.0143 78.3929 96.9557 78.2359 96.9331C78.1964 97.5907 78.1391 98.2423 78.0641 98.8879C77.9991 99.5308 77.9368 100.184 77.8772 100.847C77.825 101.497 77.7882 102.165 77.7669 102.85C77.7529 103.522 77.7772 104.217 77.8398 104.933C78.1785 104.789 78.5326 104.661 78.9022 104.551C79.2691 104.432 79.6558 104.285 80.0622 104.111C80.1199 104.085 80.2604 104.026 80.4837 103.934C80.707 103.841 80.9391 103.741 81.1798 103.634C81.4307 103.523 81.6513 103.421 81.8417 103.327C82.0422 103.23 82.1499 103.169 82.1646 103.143ZM105.015 87.7842C105.188 88.1906 105.34 88.6353 105.469 89.1183C105.572 89.5006 105.642 89.9025 105.679 90.3238C105.724 90.7324 105.712 91.1508 105.643 91.5789C105.609 91.7716 105.551 91.9595 105.471 92.1428C105.391 92.3261 105.31 92.5093 105.23 92.6926C105.15 92.8759 105.074 93.0578 105.004 93.2384C104.941 93.4062 104.905 93.5724 104.895 93.7368C104.866 93.9495 104.859 94.1669 104.876 94.389C104.899 94.5983 104.928 94.8063 104.962 95.0129C104.996 95.2195 105.03 95.4262 105.063 95.6328C105.097 95.8394 105.118 96.0387 105.127 96.2306C105.13 96.607 105.122 96.9167 105.101 97.1596C105.087 97.3898 105.065 97.5898 105.035 97.7596C105.005 97.9294 104.962 98.0918 104.907 98.2469C104.848 98.3919 104.783 98.5711 104.711 98.7846C104.643 98.9752 104.597 99.144 104.572 99.291C104.546 99.438 104.529 99.5937 104.519 99.7581C104.516 99.9097 104.521 100.087 104.532 100.288C104.55 100.478 104.564 100.711 104.574 100.989C104.57 101.055 104.559 101.117 104.543 101.175C104.523 101.224 104.5 101.278 104.473 101.339C104.454 101.388 104.437 101.446 104.423 101.515C104.419 101.58 104.43 101.658 104.454 101.749C104.47 101.809 104.493 101.873 104.521 101.941C104.55 102.009 104.573 102.073 104.589 102.133C104.619 102.244 104.612 102.381 104.569 102.543C104.534 102.693 104.48 102.853 104.407 103.023C104.344 103.191 104.278 103.365 104.207 103.546C104.134 103.716 104.084 103.87 104.056 104.007C103.997 104.271 103.961 104.518 103.947 104.748C103.943 104.975 103.902 105.224 103.823 105.493C103.72 105.833 103.584 106.231 103.415 106.686C103.243 107.131 103.041 107.563 102.808 107.981C102.587 108.407 102.342 108.78 102.072 109.1C101.802 109.421 101.516 109.621 101.214 109.702C101.104 109.732 100.987 109.758 100.863 109.78C100.74 109.802 100.618 109.83 100.497 109.862C100.235 109.932 100.019 110.012 99.849 110.1C99.6787 110.189 99.5285 110.273 99.3984 110.351C99.2811 110.436 99.1661 110.51 99.0534 110.572C98.9535 110.642 98.8382 110.695 98.7074 110.73C98.5866 110.762 98.477 110.775 98.3783 110.769C98.2824 110.774 98.1874 110.761 98.0934 110.733C98.0021 110.714 97.9031 110.686 97.7964 110.65C97.6924 110.624 97.5732 110.602 97.439 110.584C97.0921 110.537 96.7747 110.52 96.4868 110.532C96.199 110.545 95.9289 110.563 95.6767 110.587C95.4244 110.612 95.1808 110.629 94.946 110.638C94.7112 110.647 94.4642 110.61 94.2051 110.529C93.9487 110.457 93.6724 110.332 93.3763 110.152C93.0775 109.963 92.742 109.697 92.3698 109.354C92.126 109.129 91.8916 108.938 91.6666 108.783C91.4517 108.624 91.2533 108.467 91.0712 108.311C90.8892 108.155 90.731 107.987 90.5966 107.808C90.4595 107.618 90.3532 107.382 90.2777 107.1C90.1563 106.648 90.0868 106.267 90.069 105.959C90.0485 105.641 90.1464 105.383 90.3629 105.185C90.5473 105.028 90.7027 104.803 90.8291 104.51C90.9556 104.217 91.0602 103.903 91.1431 103.569C91.2332 103.221 91.312 102.871 91.3793 102.519C91.454 102.153 91.5318 101.82 91.6126 101.518C91.7008 101.203 91.7975 100.94 91.9026 100.728C92.0177 100.514 92.1545 100.38 92.3127 100.327C92.4335 100.295 92.5815 100.304 92.7566 100.354C92.9419 100.401 93.1275 100.47 93.3135 100.561C93.4968 100.641 93.6676 100.735 93.8261 100.844C93.9846 100.952 94.1011 101.045 94.1757 101.122C94.2221 101.174 94.2665 101.26 94.3089 101.378C94.3486 101.486 94.3873 101.61 94.4251 101.751C94.4729 101.889 94.5247 102.042 94.5806 102.211C94.6338 102.369 94.7021 102.523 94.7855 102.673C94.8635 102.804 94.9639 102.917 95.0868 103.013C95.2071 103.1 95.3011 103.209 95.3691 103.342C95.4625 103.49 95.5221 103.652 95.5478 103.828C95.5836 104.002 95.6505 104.151 95.7486 104.276C96.039 104.715 96.4249 105.049 96.9063 105.276C97.395 105.49 97.9362 105.517 98.5299 105.358C98.9021 105.259 99.3092 105.047 99.751 104.724C99.8509 104.654 99.9712 104.519 100.112 104.32C100.252 104.12 100.384 103.907 100.507 103.68C100.626 103.443 100.72 103.208 100.787 102.974C100.861 102.728 100.878 102.529 100.837 102.378C100.786 102.187 100.653 102.072 100.437 102.033C100.229 101.981 100.004 101.965 99.7618 101.987C99.5169 101.999 99.2861 102.023 99.0694 102.059C98.8527 102.096 98.7088 102.102 98.6376 102.078C98.541 102.039 98.4476 101.973 98.3576 101.878C98.2649 101.774 98.1695 101.659 98.0713 101.534C97.9833 101.407 97.8902 101.281 97.7921 101.156C97.694 101.031 97.5898 100.925 97.4797 100.835C97.3722 100.756 97.235 100.707 97.0679 100.687C96.9081 100.654 96.739 100.586 96.5603 100.483C96.3817 100.38 96.2229 100.25 96.0838 100.093C95.9521 99.9237 95.7983 99.7923 95.6224 99.6993C95.4209 99.5915 95.1823 99.526 94.9065 99.5029C94.6381 99.4669 94.3954 99.3864 94.1785 99.2612C94.102 99.217 94.0297 99.1285 93.9618 98.9957C93.9012 98.8502 93.8199 98.7479 93.7179 98.689C93.6131 98.62 93.4926 98.593 93.3564 98.6079C93.2276 98.6101 93.14 98.585 93.0937 98.5327C93.0581 98.5207 93.009 98.4584 92.9465 98.3457C92.8839 98.2331 92.8077 98.1295 92.7176 98.035C92.6404 97.9478 92.552 97.8798 92.4527 97.831C92.3634 97.7794 92.3066 97.7084 92.2823 97.6178C92.2688 97.5675 92.2617 97.5209 92.261 97.4779C92.2576 97.4249 92.2492 97.3733 92.2357 97.323C92.2087 97.2223 92.1579 97.1335 92.0834 97.0564C92.0061 96.9693 91.9215 96.8949 91.8295 96.8333C91.7448 96.7589 91.6679 96.6932 91.5987 96.6363C91.5269 96.5693 91.4801 96.4955 91.4586 96.415C91.4074 96.2239 91.39 96.0182 91.4065 95.7981C91.4203 95.5679 91.3895 95.312 91.314 95.0303C91.2655 94.8491 91.2005 94.667 91.1191 94.484C91.035 94.2908 90.9472 94.1041 90.8557 93.9237C90.7616 93.7332 90.6738 93.5464 90.5924 93.3634C90.511 93.1803 90.446 92.9982 90.3975 92.8171C90.357 92.6661 90.3458 92.5236 90.3637 92.3893C90.3917 92.2524 90.4211 92.1205 90.4518 91.9937C90.4899 91.8541 90.5152 91.7071 90.5278 91.5528C90.5504 91.3957 90.5348 91.2166 90.4808 91.0153C90.4296 90.8242 90.3633 90.637 90.2819 90.454C90.2005 90.2709 90.1396 90.1039 90.0991 89.9529C90.0695 89.8423 90.0536 89.7225 90.0514 89.5937C90.0492 89.4648 90.0799 89.338 90.1435 89.2131C90.2044 89.0782 90.3009 88.9553 90.433 88.8444C90.5751 88.7308 90.7669 88.6417 91.0084 88.577C91.28 88.5042 91.5162 88.5002 91.7169 88.5651C91.9176 88.6299 92.0925 88.7394 92.2417 88.8936C92.3982 89.0349 92.5363 89.2082 92.656 89.4134C92.7757 89.6186 92.8789 89.8228 92.9657 90.026C93.0626 90.2265 93.1504 90.4133 93.2291 90.5863C93.3178 90.7566 93.4109 90.8827 93.5083 90.9644C93.6084 91.0562 93.7346 91.1248 93.887 91.1703C94.0468 91.203 94.2165 91.233 94.3964 91.2603C94.5836 91.2748 94.7672 91.2957 94.947 91.323C95.137 91.3476 95.3108 91.3927 95.4686 91.4583C95.6545 91.5486 95.8379 91.7098 96.0187 91.9417C96.1995 92.1737 96.3994 92.4167 96.6184 92.6707C96.7965 92.8926 96.9997 93.1078 97.2281 93.3162C97.4565 93.5246 97.6379 93.7186 97.7723 93.8983C97.9094 94.088 98.0104 94.3036 98.0751 94.5451C98.1471 94.7738 98.2631 94.9854 98.4231 95.1798C98.5548 95.3494 98.7664 95.5353 99.0578 95.7376C99.3593 95.9372 99.6632 96.1254 99.9694 96.3022C100.283 96.4662 100.568 96.6054 100.825 96.7199C101.09 96.8215 101.252 96.8643 101.313 96.8481C101.443 96.7701 101.507 96.5858 101.504 96.2953C101.502 96.0048 101.475 95.6831 101.424 95.3302C101.38 94.9645 101.325 94.6016 101.261 94.2413C101.204 93.8683 101.18 93.5567 101.189 93.3064C101.192 93.036 101.216 92.8246 101.261 92.6722C101.307 92.5198 101.356 92.3826 101.41 92.2604C101.473 92.1355 101.536 92.0056 101.597 91.8706C101.668 91.733 101.729 91.5387 101.78 91.2877C101.801 91.1635 101.788 91.0159 101.742 90.8448C101.704 90.661 101.692 90.4755 101.706 90.2883C101.719 90.134 101.751 89.9907 101.802 89.8584C101.86 89.7134 101.885 89.5664 101.877 89.4175C101.884 89.0813 101.868 88.7569 101.827 88.4443C101.784 88.1216 101.765 87.83 101.771 87.5697C101.776 87.3093 101.824 87.0862 101.915 86.9002C102.015 86.7115 102.206 86.5794 102.488 86.5039C102.709 86.4446 102.937 86.4105 103.172 86.4015C103.417 86.3898 103.616 86.4066 103.768 86.4521C103.771 86.4621 103.831 86.5268 103.95 86.6461C104.078 86.7627 104.217 86.8981 104.366 87.0523C104.525 87.2037 104.668 87.3542 104.794 87.5037C104.928 87.6404 105.001 87.7339 105.015 87.7842ZM112.854 84.6809L112.87 84.7412C112.937 84.9928 112.991 85.3557 113.032 85.8301C113.073 86.3044 113.173 86.8384 113.332 87.432C113.424 87.7741 113.505 88.1189 113.577 88.4664C113.658 88.8112 113.713 89.1362 113.741 89.4415C113.761 89.5978 113.756 89.7394 113.725 89.8663C113.695 89.9931 113.658 90.1163 113.614 90.2358C113.571 90.3553 113.527 90.4748 113.484 90.5943C113.45 90.7111 113.428 90.8302 113.418 90.9517C113.412 91.0503 113.411 91.1691 113.416 91.308C113.431 91.4441 113.447 91.5854 113.465 91.7316C113.493 91.8752 113.52 92.0187 113.548 92.1623C113.576 92.3059 113.606 92.438 113.638 92.5588C113.67 92.6795 113.711 92.809 113.758 92.9471C113.803 93.0752 113.845 93.2097 113.883 93.3506C113.915 93.4713 113.93 93.586 113.926 93.6947C113.92 93.7934 113.909 93.8934 113.893 93.9947C113.875 94.086 113.863 94.181 113.857 94.2796C113.848 94.3682 113.858 94.4678 113.888 94.5785C113.912 94.6691 113.956 94.7707 114.018 94.8833C114.078 94.9859 114.12 95.0825 114.145 95.173C114.193 95.3541 114.205 95.5611 114.181 95.794C114.158 96.0269 114.165 96.2567 114.204 96.4834C114.257 96.8792 114.314 97.2358 114.378 97.5531C114.441 97.8704 114.432 98.1586 114.351 98.4177C114.277 98.6641 114.1 98.8894 113.82 99.0937C113.538 99.288 113.085 99.4687 112.461 99.6358C112.139 99.7221 111.866 99.7684 111.641 99.7747C111.423 99.7683 111.242 99.7359 111.097 99.6777C110.962 99.6168 110.86 99.5364 110.79 99.4365C110.717 99.3266 110.665 99.2112 110.633 99.0905C110.584 98.9094 110.559 98.7165 110.558 98.5118C110.557 98.3072 110.53 98.1042 110.476 97.903C110.438 97.7621 110.384 97.6203 110.314 97.4775C110.24 97.3246 110.179 97.1576 110.131 96.9764C110.063 96.7249 110.003 96.4606 109.951 96.1835C109.898 95.9065 109.837 95.6371 109.766 95.3755C109.702 95.1341 109.617 94.898 109.512 94.6673C109.417 94.4339 109.292 94.23 109.138 94.0558C109.017 93.9264 108.889 93.8313 108.754 93.7704C108.629 93.7068 108.5 93.6281 108.367 93.5343C108.234 93.4405 108.107 93.3075 107.985 93.1352C107.864 92.9629 107.754 92.6956 107.657 92.3334L107.419 91.443L107.269 90.8845C107.195 90.6887 107.082 90.4493 106.931 90.1663C106.787 89.8706 106.631 89.551 106.464 89.2077C106.296 88.8643 106.131 88.5096 105.968 88.1434C105.806 87.7772 105.677 87.4181 105.583 87.0659C105.507 86.7842 105.464 86.5208 105.452 86.2759C105.437 86.021 105.47 85.8019 105.551 85.6186C105.604 85.4964 105.696 85.3963 105.826 85.3183C105.956 85.2403 106.102 85.0989 106.262 84.8941C106.413 84.6919 106.523 84.517 106.591 84.3693C106.669 84.2189 106.758 84.0873 106.857 83.9744C106.954 83.8515 107.081 83.742 107.238 83.6459C107.406 83.547 107.661 83.4518 108.003 83.3601C108.164 83.317 108.305 83.3007 108.426 83.3113C108.555 83.3091 108.678 83.3247 108.795 83.3581C108.909 83.3815 109.03 83.4085 109.156 83.4392C109.283 83.47 109.429 83.4902 109.593 83.5001C109.77 83.5173 109.95 83.5232 110.132 83.5176C110.324 83.5093 110.504 83.4987 110.673 83.4857C110.84 83.4627 110.986 83.4451 111.112 83.4329C111.238 83.4206 111.334 83.4165 111.4 83.4204C111.514 83.4438 111.641 83.496 111.781 83.577C111.929 83.6453 112.072 83.7364 112.211 83.8503C112.349 83.9642 112.475 84.0922 112.588 84.2343C112.702 84.3764 112.79 84.5253 112.854 84.6809ZM117.277 104.266C117.27 104.322 117.193 104.456 117.045 104.668C116.896 104.88 116.73 105.103 116.544 105.336C116.371 105.576 116.208 105.792 116.055 105.985C115.901 106.177 115.816 106.28 115.798 106.296C115.716 106.35 115.629 106.39 115.539 106.414C115.451 106.448 115.357 106.479 115.256 106.506C115.055 106.56 114.842 106.59 114.617 106.596C114.395 106.613 114.173 106.607 113.95 106.581C113.73 106.564 113.516 106.53 113.308 106.478C113.099 106.426 112.904 106.36 112.721 106.279C112.652 106.265 112.543 106.219 112.392 106.141C112.242 106.063 112.087 105.969 111.929 105.861C111.783 105.759 111.648 105.656 111.522 105.549C111.404 105.43 111.335 105.335 111.316 105.265C111.281 105.134 111.233 104.953 111.171 104.721C111.116 104.477 111.061 104.233 111.007 103.989C110.959 103.732 110.92 103.505 110.889 103.308C110.865 103.099 110.862 102.965 110.879 102.907C110.915 102.8 110.991 102.704 111.109 102.619C111.233 102.521 111.382 102.432 111.555 102.353C111.726 102.265 111.912 102.177 112.116 102.09C112.316 101.993 112.525 101.889 112.743 101.776C112.876 101.708 112.992 101.639 113.092 101.57C113.19 101.49 113.284 101.421 113.377 101.364C113.467 101.297 113.563 101.233 113.666 101.173C113.778 101.111 113.91 101.059 114.061 101.019C114.172 100.989 114.372 101.011 114.661 101.085C114.958 101.145 115.272 101.271 115.603 101.463C115.945 101.652 116.271 101.92 116.58 102.269C116.886 102.607 117.108 103.033 117.245 103.546C117.313 103.798 117.323 104.038 117.277 104.266Z" fill="white"/>
</svg>
