<svg width="33" height="32" viewBox="0 0 33 32" fill="none" xmlns="http://www.w3.org/2000/svg">
<rect x="5.56726" y="4" width="21.3333" height="24" rx="2.66667" fill="#7E869E" fill-opacity="0.25"/>
<path d="M5.56726 25.3334C5.56726 23.8607 6.76117 22.6667 8.23393 22.6667H22.9006C24.1431 22.6667 24.7644 22.6667 25.2544 22.4638C25.9078 22.1931 26.427 21.674 26.6976 21.0206C26.9006 20.5305 26.9006 19.9093 26.9006 18.6667V22.6667C26.9006 25.1809 26.9006 26.438 26.1195 27.219C25.3385 28.0001 24.0814 28.0001 21.5673 28.0001H8.23393C6.76117 28.0001 5.56726 26.8062 5.56726 25.3334Z" fill="#222222"/>
<path d="M12.9005 13.9999L15.4258 16.5252C15.5039 16.6033 15.6305 16.6033 15.7086 16.5252L20.9005 11.3333" stroke="#222222" stroke-width="1.6"/>
</svg>
