<svg width="33" height="32" viewBox="0 0 33 32" fill="none" xmlns="http://www.w3.org/2000/svg">
<path d="M20.961 6.02587L24.7592 7.65367C25.2494 7.86377 25.5673 8.34582 25.5673 8.87919V17.2164C25.5673 19.8 24.3196 22.2246 22.2172 23.7263L17.009 27.4464C16.5454 27.7776 15.9226 27.7776 15.459 27.4464L10.2507 23.7263C8.14836 22.2246 6.90063 19.8 6.90063 17.2164V8.8792C6.90063 8.34582 7.2185 7.86377 7.70874 7.65367L11.5069 6.02587C14.5255 4.73219 17.9424 4.73219 20.961 6.02587Z" fill="#7E869E" fill-opacity="0.25"/>
<path d="M12.9006 16.6667L15.4259 19.1919C15.504 19.27 15.6306 19.27 15.7087 19.1919L20.9006 14" stroke="#222222" stroke-width="1.33333"/>
</svg>
