<svg width="33" height="32" viewBox="0 0 33 32" fill="none" xmlns="http://www.w3.org/2000/svg">
<path fill-rule="evenodd" clip-rule="evenodd" d="M9.56722 5.35769C8.84785 5.38811 8.32978 5.45641 7.87233 5.60973C6.28652 6.14124 5.04188 7.38588 4.51036 8.9717C4.23389 9.79659 4.23389 10.8186 4.23389 12.8627C4.23389 12.9904 4.23389 13.0543 4.25117 13.1058C4.28439 13.205 4.36218 13.2828 4.46129 13.316C4.51285 13.3333 4.57672 13.3333 4.70448 13.3333H27.7633C27.8911 13.3333 27.9549 13.3333 28.0065 13.316C28.1056 13.2828 28.1834 13.205 28.2166 13.1058C28.2339 13.0543 28.2339 12.9904 28.2339 12.8627C28.2339 10.8186 28.2339 9.79659 27.9574 8.9717C27.4259 7.38588 26.1813 6.14124 24.5954 5.60973C24.138 5.45641 23.6199 5.38811 22.9006 5.35769L22.9006 8.66658C22.9006 9.77115 22.0051 10.6666 20.9006 10.6666C19.796 10.6666 18.9006 9.77116 18.9006 8.66659L18.9006 5.33325H13.5672L13.5672 8.66658C13.5672 9.77115 12.6718 10.6666 11.5672 10.6666C10.4627 10.6666 9.56723 9.77116 9.56723 8.66659L9.56722 5.35769Z" fill="#222222"/>
<path d="M4.23389 15.3334C4.23389 15.0191 4.23389 14.862 4.33152 14.7644C4.42915 14.6667 4.58628 14.6667 4.90055 14.6667H27.5672C27.8815 14.6667 28.0386 14.6667 28.1363 14.7644C28.2339 14.862 28.2339 15.0191 28.2339 15.3334V16.0001C28.2339 21.0284 28.2339 23.5426 26.6718 25.1047C25.1097 26.6667 22.5955 26.6667 17.5672 26.6667H14.9006C9.87224 26.6667 7.35808 26.6667 5.79598 25.1047C4.23389 23.5426 4.23389 21.0284 4.23389 16.0001V15.3334Z" fill="#7E869E" fill-opacity="0.25"/>
<path d="M11.5673 3.33325L11.5673 8.66659" stroke="#222222" stroke-width="1.33333" stroke-linecap="round"/>
<path d="M20.9005 3.33325L20.9005 8.66659" stroke="#222222" stroke-width="1.33333" stroke-linecap="round"/>
</svg>
