<svg width="33" height="32" viewBox="0 0 33 32" fill="none" xmlns="http://www.w3.org/2000/svg">
<path fill-rule="evenodd" clip-rule="evenodd" d="M17.2646 23.7387C19.2418 22.7131 26.0672 18.6885 26.0672 12.0001C26.0672 6.84542 21.8885 2.66675 16.7338 2.66675C11.5792 2.66675 7.40051 6.84542 7.40051 12.0001C7.40051 18.6885 14.2259 22.7131 16.2031 23.7387C16.5403 23.9136 16.9274 23.9136 17.2646 23.7387ZM16.7339 16.0001C18.943 16.0001 20.7339 14.2093 20.7339 12.0001C20.7339 9.79098 18.943 8.00012 16.7339 8.00012C14.5247 8.00012 12.7339 9.79098 12.7339 12.0001C12.7339 14.2093 14.5247 16.0001 16.7339 16.0001Z" fill="#7E869E" fill-opacity="0.25"/>
<path d="M27.1262 23.3333C28.1794 23.9413 28.7339 24.6311 28.7339 25.3333C28.7339 26.0354 28.1794 26.7252 27.1262 27.3333C26.073 27.9413 24.5581 28.4463 22.7339 28.7974C20.9097 29.1484 18.8403 29.3333 16.7339 29.3333C14.6274 29.3333 12.5581 29.1484 10.7339 28.7974C8.90966 28.4463 7.3948 27.9413 6.34158 27.3333C5.28836 26.7252 4.73389 26.0354 4.73389 25.3333C4.73389 24.6311 5.28836 23.9413 6.34158 23.3333" stroke="#222222" stroke-width="1.6" stroke-linecap="round"/>
</svg>
