<svg width="33" height="32" viewBox="0 0 33 32" fill="none" xmlns="http://www.w3.org/2000/svg">
<path d="M28.2339 18.6667V20.0001C28.2339 21.4728 27.04 22.6667 25.5672 22.6667H6.90055C5.42779 22.6667 4.23389 21.4728 4.23389 20.0001V18.6667C4.23389 12.0393 9.60647 6.66675 16.2339 6.66675C22.8613 6.66675 28.2339 12.0393 28.2339 18.6667Z" fill="#7E869E" fill-opacity="0.25"/>
<path fill-rule="evenodd" clip-rule="evenodd" d="M21.3433 14.0731C21.7518 13.4604 21.5862 12.6325 20.9735 12.2241C20.3608 11.8156 19.533 11.9812 19.1245 12.5939L16.8388 16.0224C16.7027 16.0077 16.5644 16.0001 16.4244 16.0001H16.0434C13.9395 16.0001 12.2339 17.7057 12.2339 19.8097C12.2339 19.9149 12.3192 20.0001 12.4244 20.0001H20.0434C20.1486 20.0001 20.2339 19.9149 20.2339 19.8097C20.2339 18.818 19.855 17.9148 19.234 17.237L21.3433 14.0731Z" fill="#222222"/>
</svg>
